<svg width="1531" height="407" viewBox="0 0 1531 407" fill="none" xmlns="http://www.w3.org/2000/svg">
<rect y="20" width="1531" height="387" fill="#F4FCEE"/>
<path d="M943.166 102.962L927.259 147.62C946.834 154.853 988.626 167.4 996.762 144.56C1004.9 121.72 969.778 111.048 943.166 102.962Z" fill="#E0F1D1" stroke="black"/>
<path d="M999.387 94.375C1031.11 107.227 1053.6 124.004 1046.93 151.568C1041.93 171.623 1028.64 180.418 1011.17 182.345C1033.68 195.256 1043.98 212.641 1030.75 240.238C1014.26 274.847 981.088 275.063 937.691 264.041L924.606 300.984L899.453 293.375L912.539 256.432C906.14 254.403 898.928 252.55 891.879 250.188L878.794 287.131L853.68 279.517L866.765 242.574L816.797 226.41L830.634 200.72C830.634 200.72 842.528 204.537 849.218 206.57C856.217 208.663 859.879 204.855 861.435 202.081L882.378 142.873L897.575 100.823C898.38 96.1983 896.924 89.9054 886.703 86.6307C887.412 86.3386 868.279 81.0493 868.279 81.0493L877.017 56.3124L928.583 71.8967L941.397 35.7168L967.359 43.5718L954.545 79.7517C961.257 81.622 967.777 83.7215 974.456 85.7849L987.27 49.605L1012.55 57.2542L999.387 94.375Z" fill="#E0F1D1" stroke="white"/>
<path d="M917.025 175.285C925.043 177.789 944.014 182.613 959.755 190.069C967.625 193.796 974.743 198.205 979.293 203.351C983.855 208.512 985.867 214.459 983.401 221.183L983.179 221.79C980.791 227.994 975.518 231.389 968.793 232.908C961.873 234.471 953.351 234.069 944.654 232.705C927.253 229.976 908.935 223.362 900.862 220.604L900.404 220.449L916.544 175.135L917.025 175.285ZM942.984 101.811C951.002 104.315 969.973 109.14 985.714 116.595C993.584 120.322 1000.7 124.732 1005.25 129.877C1009.81 135.038 1011.83 140.985 1009.36 147.709L1009.14 148.317C1006.75 154.52 1001.48 157.915 994.752 159.434C987.831 160.997 979.311 160.595 970.614 159.231C953.212 156.502 934.894 149.888 926.82 147.131L926.363 146.975L942.503 101.661L942.984 101.811Z" fill="#F4FCEE"/>
<path d="M559.235 123.737L569.004 155.461C583.456 152.554 613.08 144.667 608.083 128.442C603.087 112.217 578.14 118.771 559.235 123.737Z" fill="#E0F1D1" stroke="black"/>
<path d="M588.245 98.3306C612.149 94.2772 632.359 95.8567 640.218 114.294C645.849 127.763 641.87 137.7 632.537 145.165C651.114 144.491 664.501 150.85 668.559 171.691C673.715 197.785 654.531 209.959 624.625 219.315L632.749 245.531L614.895 250.244L606.772 224.028C602.19 225.173 597.211 226.715 592.11 227.903L600.234 254.119L582.401 258.816L574.277 232.599L538.364 241.354L535.467 221.403C535.467 221.403 544.003 219.301 548.755 218.053C553.712 216.727 554.22 213.185 553.943 211.008L540.906 169.002L531.836 139.051C530.335 136.071 526.81 132.944 519.477 134.753C519.765 134.326 506.397 138.201 506.397 138.201L500.943 120.655L537.538 110.983L529.581 85.3088L548.01 80.4444L555.966 106.119C560.662 104.768 565.344 103.62 570.103 102.394L562.146 76.7191L580.094 71.9811L588.245 98.3306Z" fill="#E0F1D1" stroke="white"/>
<path d="M574.791 175.107C580.505 173.653 593.6 169.562 605.933 168.175C612.098 167.482 618.134 167.458 622.996 168.803C627.878 170.154 631.632 172.907 633.081 177.774L633.213 178.215C634.483 182.751 632.836 186.688 629.553 190.036C626.178 193.478 621.034 196.347 615.394 198.716C604.108 203.456 590.635 206.267 584.775 207.596L584.303 207.704L574.303 175.232L574.791 175.107ZM558.597 122.99C564.31 121.536 577.405 117.446 589.737 116.059C595.903 115.366 601.938 115.34 606.801 116.686C611.683 118.036 615.437 120.791 616.886 125.658L617.018 126.097C618.289 130.633 616.641 134.571 613.358 137.919C609.983 141.36 604.839 144.23 599.2 146.599C587.913 151.338 574.44 154.151 568.58 155.48L568.108 155.588L558.108 123.115L558.597 122.99Z" fill="#F4FCEE"/>
<path d="M510.546 37.8652L508.624 43.2875C510.935 44.3777 515.87 46.3438 516.853 43.5706C517.836 40.7974 513.689 39.1293 510.546 37.8652Z" fill="#E0F1D1" stroke="black"/>
<path d="M517.208 37.3312C520.952 39.2391 523.599 41.5485 522.786 44.9253C522.176 47.3809 520.595 48.3515 518.526 48.4248C521.179 50.2519 522.383 52.5205 520.793 55.8387C518.812 60.001 514.885 59.7106 509.758 57.9194L508.177 62.4056L505.207 61.2151L506.788 56.7289C506.032 56.4144 505.18 56.1141 504.348 55.7518L502.767 60.238L499.801 59.0472L501.382 54.561L495.482 52.0651L497.142 48.9908C497.142 48.9908 498.546 49.5811 499.337 49.8989C500.163 50.2271 500.6 49.7868 500.786 49.4555L503.317 42.2652L505.152 37.1618C505.252 36.5922 505.085 35.7927 503.878 35.2861C503.962 35.2565 501.702 34.4131 501.702 34.4131L502.758 31.4089L508.848 33.8477L510.396 29.4542L513.462 30.6832L511.914 35.0767C512.706 35.3744 513.476 35.6989 514.265 36.0203L515.813 31.6268L518.799 32.8236L517.208 37.3312Z" fill="#E0F1D1" stroke="white"/>
<path d="M507.539 46.2314C508.454 46.6075 510.747 47.4107 512.638 48.5123C513.583 49.0628 514.482 49.7166 515.069 50.4716C515.669 51.2423 515.976 52.1663 515.615 53.1668L515.545 53.3472C515.172 54.2196 514.409 54.6367 513.544 54.7726C512.641 54.9143 511.568 54.7656 510.521 54.5075C508.419 53.9893 506.217 52.9707 505.276 52.5545L504.833 52.3586L507.073 46.0391L507.539 46.2314ZM510.675 37.3075C511.59 37.6836 513.883 38.4871 515.775 39.5888C516.72 40.1393 517.618 40.7931 518.206 41.5481C518.806 42.3189 519.113 43.2435 518.751 44.2442L518.681 44.4243C518.308 45.2964 517.546 45.7131 516.681 45.8492C515.778 45.9908 514.705 45.843 513.658 45.5849C511.556 45.0667 509.354 44.0472 508.413 43.631L507.97 43.4351L510.209 37.1162L510.675 37.3075Z" fill="#F4FCEE"/>
<path d="M1182.52 69.9849L1186.57 83.1641C1192.58 81.9567 1204.89 78.6801 1202.81 71.9397C1200.73 65.1992 1190.37 67.9218 1182.52 69.9849Z" fill="#E0F1D1" stroke="black"/>
<path d="M1194.57 59.4306C1204.5 57.7467 1212.89 58.4029 1216.16 66.0622C1218.5 71.6578 1216.85 75.786 1212.97 78.8875C1220.69 78.6073 1226.25 81.2492 1227.93 89.9073C1230.08 100.748 1222.11 105.805 1209.68 109.692L1213.06 120.583L1205.64 122.541L1202.26 111.65C1200.36 112.126 1198.29 112.766 1196.17 113.26L1199.55 124.151L1192.14 126.102L1188.77 115.211L1173.85 118.848L1172.64 110.559C1172.64 110.559 1176.19 109.686 1178.16 109.167C1180.22 108.617 1180.43 107.145 1180.32 106.241L1174.9 88.79L1171.13 76.3474C1170.51 75.1095 1169.05 73.8103 1166 74.5618C1166.12 74.3845 1160.57 75.9942 1160.57 75.9942L1158.3 68.705L1173.5 64.687L1170.2 54.0209L1177.85 52.0001L1181.16 62.6662C1183.11 62.1051 1185.05 61.6282 1187.03 61.1185L1183.73 50.4524L1191.18 48.4841L1194.57 59.4306Z" fill="#E0F1D1" stroke="white"/>
<path d="M1188.9 91.0469C1191.25 90.4485 1196.72 88.7392 1201.87 88.1602C1204.45 87.8709 1207 87.8561 1209.08 88.4305C1211.17 89.0102 1212.84 90.2117 1213.48 92.3576C1214.14 94.45 1213.4 96.2496 1211.95 97.7335C1210.5 99.2027 1208.33 100.412 1205.97 101.401C1201.26 103.382 1195.63 104.556 1193.2 105.106L1192.73 105.213L1188.41 91.1725L1188.9 91.0469ZM1182.17 69.3954C1184.52 68.7968 1189.99 67.0879 1195.14 66.509C1197.72 66.2196 1200.27 66.2045 1202.35 66.7789C1204.44 67.3587 1206.11 68.5605 1206.75 70.7064C1207.42 72.7987 1206.67 74.5984 1205.22 76.0823C1203.78 77.5513 1201.6 78.7598 1199.24 79.7487C1194.53 81.7297 1188.9 82.9043 1186.48 83.4545L1186 83.5614L1181.68 69.521L1182.17 69.3954Z" fill="#F4FCEE"/>
<path d="M775.355 94.7568L771.665 106.74C766.206 105.642 755.017 102.663 756.904 96.5342C758.791 90.4055 768.215 92.881 775.355 94.7568Z" fill="#E0F1D1" stroke="black"/>
<path d="M764.398 85.1601C755.368 83.629 747.735 84.2257 744.766 91.1899C742.639 96.2776 744.142 100.031 747.667 102.851C740.65 102.596 735.593 104.999 734.06 112.871C732.113 122.727 739.359 127.326 750.656 130.86L747.587 140.763L754.331 142.543L757.4 132.64C759.13 133.073 761.011 133.655 762.938 134.104L759.869 144.007L766.605 145.781L769.674 135.878L783.24 139.185L784.334 131.649C784.334 131.649 781.109 130.855 779.314 130.383C777.442 129.882 777.25 128.544 777.355 127.722L782.279 111.855L785.705 100.542C786.272 99.4161 787.604 98.2348 790.374 98.9181C790.265 98.7568 795.315 100.22 795.315 100.22L797.375 93.5928L783.551 89.9395L786.557 80.2414L779.596 78.4039L776.59 88.102C774.817 87.5918 773.048 87.1582 771.251 86.6949L774.256 76.9967L767.477 75.207L764.398 85.1601Z" fill="#E0F1D1" stroke="white"/>
<path d="M769.568 113.864C767.434 113.321 762.45 111.765 757.763 111.238C755.42 110.975 753.092 110.96 751.195 111.484C749.279 112.014 747.75 113.117 747.161 115.088L747.061 115.445C746.636 117.216 747.317 118.747 748.564 120.019C749.88 121.361 751.866 122.463 754.009 123.362C758.303 125.166 763.422 126.235 765.627 126.735L766.099 126.842L770.057 113.989L769.568 113.864ZM775.685 94.1771C773.551 93.6337 768.568 92.0786 763.881 91.5518C761.538 91.2884 759.21 91.273 757.313 91.7976C755.397 92.3277 753.867 93.4298 753.278 95.4006L753.179 95.7571C752.753 97.5278 753.434 99.0598 754.681 100.332C755.997 101.674 757.984 102.776 760.127 103.676C764.42 105.479 769.539 106.548 771.744 107.048L772.217 107.155L776.174 94.3018L775.685 94.1771Z" fill="#F4FCEE"/>
<path fill-rule="evenodd" clip-rule="evenodd" d="M42.5129 79.2892C30.631 70.3068 28.2808 53.3949 37.2631 41.513C46.2455 29.6311 63.1575 27.2808 75.0394 36.2632C86.9213 45.2456 89.2715 62.1575 80.2891 74.0394C71.3068 85.9213 54.3948 88.2716 42.5129 79.2892ZM69.302 66.1962L71.6431 42.1477L49.1406 50.9569L54.7975 64.4311L69.302 66.1962ZM67.8901 68.0806L53.3806 66.3054L47.7206 52.8352L47.2534 74.4104L67.8901 68.0806Z" fill="#E0F1D1"/>
<path d="M71.6426 42.1475L62.6267 54.0737L69.3017 66.1984L71.6426 42.1475Z" fill="white" fill-opacity="0.5"/>
<path opacity="0.8" d="M71.6431 42.1477L49.1405 50.9569L62.6271 54.074L71.6431 42.1477Z" fill="#FAFEF7"/>
<path d="M53.3791 66.3071L47.253 74.4108L67.8896 68.081L53.3791 66.3071Z" fill="white" fill-opacity="0.5"/>
<path opacity="0.796" d="M47.2535 74.4106L53.3806 66.3055L47.7217 52.834L47.2535 74.4106Z" fill="#FAFEF7"/>
<path d="M49.1409 50.9572L54.7978 64.4314L62.6255 54.0769L49.1409 50.9572Z" fill="white" fill-opacity="0.5"/>
<path fill-rule="evenodd" clip-rule="evenodd" d="M1353.13 177.303C1324.34 166.789 1309.52 134.927 1320.04 106.133C1330.55 77.3395 1362.41 62.5221 1391.2 73.0358C1420 83.5495 1434.82 115.411 1424.3 144.205C1413.79 172.999 1381.93 187.816 1353.13 177.303ZM1397.96 135.394L1388.07 86.6617L1349.1 117.558L1368.35 140.662L1397.96 135.394ZM1396.31 139.953L1366.69 145.204L1347.44 122.11L1359.52 164.845L1396.31 139.953Z" fill="#E0F1D1"/>
<path d="M1388.07 86.6621L1377.52 115.564L1397.96 135.398L1388.07 86.6621Z" fill="white" fill-opacity="0.5"/>
<path opacity="0.8" d="M1388.07 86.6619L1349.1 117.558L1377.52 115.563L1388.07 86.6619Z" fill="#FAFEF7"/>
<path d="M1366.69 145.208L1359.52 164.846L1396.31 139.953L1366.69 145.208Z" fill="white" fill-opacity="0.5"/>
<path opacity="0.796" d="M1359.52 164.846L1366.69 145.205L1347.44 122.107L1359.52 164.846Z" fill="#FAFEF7"/>
<path d="M1349.1 117.558L1368.35 140.663L1377.51 115.57L1349.1 117.558Z" fill="white" fill-opacity="0.5"/>
<path fill-rule="evenodd" clip-rule="evenodd" d="M395.57 75.0627C386.418 70.1345 382.995 58.7217 387.923 49.5699C392.851 40.4182 404.264 36.9946 413.416 41.9228C422.567 46.851 425.991 58.2638 421.063 67.4156C416.135 76.5673 404.722 79.9909 395.57 75.0627ZM412.649 63.1776L411.701 46.343L397.121 54.8169L402.458 63.5064L412.649 63.1776ZM411.877 64.6277L401.681 64.95L396.342 56.2636L398.319 71.1928L411.877 64.6277Z" fill="#E0F1D1"/>
<path d="M411.701 46.3428L406.755 55.5287L412.65 63.179L411.701 46.3428Z" fill="white" fill-opacity="0.5"/>
<path opacity="0.8" d="M411.701 46.3431L397.121 54.8169L406.754 55.529L411.701 46.3431Z" fill="#FAFEF7"/>
<path d="M401.68 64.9504L398.319 71.1921L411.877 64.627L401.68 64.9504Z" fill="white" fill-opacity="0.5"/>
<path opacity="0.796" d="M398.32 71.1924L401.681 64.9496L396.343 56.2622L398.32 71.1924Z" fill="#FAFEF7"/>
<path d="M397.121 54.8164L402.459 63.5059L406.753 55.5306L397.121 54.8164Z" fill="white" fill-opacity="0.5"/>
<path fill-rule="evenodd" clip-rule="evenodd" d="M675.163 51.2483C661.478 54.9447 647.389 46.8482 643.693 33.1631C639.996 19.478 648.093 5.38901 661.778 1.69255C675.463 -2.00391 689.552 6.09258 693.248 19.7777C696.945 33.4628 688.848 47.5518 675.163 51.2483ZM680.942 23.4657L664.222 7.6787L657.722 29.7392L671.155 33.3439L680.942 23.4657ZM681.535 25.6266L671.738 35.5027L658.307 31.9026L674.259 44.8377L681.535 25.6266Z" fill="#E0F1D1"/>
<path d="M664.222 7.67871L667.932 21.4149L680.943 23.4668L664.222 7.67871Z" fill="white" fill-opacity="0.5"/>
<path opacity="0.8" d="M664.222 7.67857L657.722 29.739L667.932 21.4148L664.222 7.67857Z" fill="#FAFEF7"/>
<path d="M671.737 35.5037L674.258 44.8372L681.535 25.6261L671.737 35.5037Z" fill="white" fill-opacity="0.5"/>
<path opacity="0.796" d="M674.258 44.8371L671.736 35.5021L658.305 31.9004L674.258 44.8371Z" fill="#FAFEF7"/>
<path d="M657.721 29.7385L671.153 33.3432L667.932 21.4173L657.721 29.7385Z" fill="white" fill-opacity="0.5"/>
<path fill-rule="evenodd" clip-rule="evenodd" d="M12.6801 216.271C2.39562 219.049 -8.19242 212.964 -10.9704 202.68C-13.7483 192.395 -7.66368 181.807 2.62085 179.029C12.9054 176.251 23.4934 182.336 26.2714 192.621C29.0493 202.905 22.9647 213.493 12.6801 216.271ZM17.0228 195.392L4.45784 183.528L-0.426965 200.107L9.66761 202.816L17.0228 195.392ZM17.4689 197.016L10.1058 204.438L0.0121866 201.733L12.0007 211.454L17.4689 197.016Z" fill="#E0F1D1"/>
<path d="M4.45703 183.527L7.24534 193.85L17.0235 195.392L4.45703 183.527Z" fill="white" fill-opacity="0.5"/>
<path opacity="0.8" d="M4.45764 183.528L-0.427162 200.106L7.24595 193.851L4.45764 183.528Z" fill="#FAFEF7"/>
<path d="M10.1054 204.439L12 211.453L17.4682 197.016L10.1054 204.439Z" fill="white" fill-opacity="0.5"/>
<path opacity="0.796" d="M11.9996 211.453L10.1047 204.438L0.0107422 201.731L11.9996 211.453Z" fill="#FAFEF7"/>
<path d="M-0.428015 200.106L9.66656 202.815L7.24573 193.853L-0.428015 200.106Z" fill="white" fill-opacity="0.5"/>
<path fill-rule="evenodd" clip-rule="evenodd" d="M1069.95 71.2084C1061.46 66.3939 1058.48 55.61 1063.3 47.1202C1068.11 38.6305 1078.89 35.6515 1087.38 40.466C1095.87 45.2804 1098.85 56.0644 1094.04 64.5541C1089.22 73.0438 1078.44 76.0229 1069.95 71.2084ZM1086.23 60.4028L1085.68 44.5801L1071.82 52.2349L1076.65 60.5018L1086.23 60.4028ZM1085.47 61.7481L1075.89 61.841L1071.06 53.577L1072.61 67.6321L1085.47 61.7481Z" fill="#E0F1D1"/>
<path d="M1085.68 44.5796L1080.85 53.101L1086.23 60.4038L1085.68 44.5796Z" fill="white" fill-opacity="0.5"/>
<path opacity="0.8" d="M1085.68 44.5801L1071.82 52.2349L1080.85 53.1015L1085.68 44.5801Z" fill="#FAFEF7"/>
<path d="M1075.89 61.8416L1072.61 67.6318L1085.47 61.7478L1075.89 61.8416Z" fill="white" fill-opacity="0.5"/>
<path opacity="0.796" d="M1072.61 67.6318L1075.89 61.8407L1071.06 53.5757L1072.61 67.6318Z" fill="#FAFEF7"/>
<path d="M1071.82 52.234L1076.65 60.5009L1080.85 53.1026L1071.82 52.234Z" fill="white" fill-opacity="0.5"/>
<path d="M64.611 162.903C73.4834 158.058 76.748 146.937 71.9027 138.065C67.0575 129.193 55.9372 125.928 47.0648 130.773C38.1925 135.619 34.9279 146.739 39.7731 155.611C44.6184 164.484 55.7387 167.748 64.611 162.903Z" fill="white"/>
<path fill-rule="evenodd" clip-rule="evenodd" d="M58.5265 147.173L58.5254 147.171C58.4193 147.239 57.8687 147.584 56.5986 148.278C55.5845 148.832 54.8541 149.192 54.5965 149.317L54.5982 149.32C50.6007 151.28 47.3157 152.191 46.8716 151.378C46.428 150.566 48.9705 148.295 52.7789 145.988L54.2286 148.643C54.4935 148.522 55.248 148.166 56.2581 147.614C57.47 146.952 58.05 146.57 58.158 146.498L56.7088 143.845C60.6994 141.891 63.9773 140.983 64.4204 141.794C64.8645 142.608 62.3279 144.873 58.5265 147.173ZM56.558 143.568L55.2607 141.193L60.6966 138.224L58.7183 134.602L43.9176 142.684L45.8959 146.307L51.3318 143.338L52.6286 145.713C48.3216 148.328 45.4773 151.018 46.0497 152.067C46.6222 153.115 50.4222 152.175 54.9513 149.966L59.1087 157.579L63.0375 155.433L58.8791 147.819C63.1791 145.207 66.0159 142.523 65.444 141.475C64.8721 140.428 61.0801 141.364 56.558 143.568Z" fill="#E0F1D1"/>
<path d="M259.24 76.4033C272.03 71.9879 278.82 58.04 274.404 45.2497C269.989 32.4594 256.041 25.6701 243.251 30.0854C230.46 34.5008 223.671 48.4487 228.086 61.239C232.502 74.0293 246.45 80.8186 259.24 76.4033Z" fill="white"/>
<path fill-rule="evenodd" clip-rule="evenodd" d="M254.718 54.2861L254.717 54.2832C254.562 54.3498 253.758 54.6823 251.927 55.3144C250.465 55.819 249.421 56.1309 249.053 56.2384L249.055 56.2428C243.342 57.938 238.803 58.4081 238.398 57.2357C237.994 56.0647 241.856 53.6347 247.397 51.4402L248.718 55.2672C249.095 55.1663 250.17 54.8648 251.626 54.3622C253.373 53.7591 254.224 53.3844 254.382 53.3135L253.062 49.4879C258.764 47.7996 263.293 47.333 263.696 48.5025C264.101 49.6749 260.248 52.0985 254.718 54.2861ZM252.924 49.0898L251.742 45.6652L259.578 42.96L257.776 37.7377L236.439 45.1033L238.242 50.3256L246.078 47.6204L247.26 51.0436C240.992 53.5345 236.638 56.4501 237.16 57.9612C237.682 59.4723 242.906 59.0796 249.377 57.1749L253.165 68.1493L258.829 66.1942L255.039 55.2168C261.297 52.7294 265.64 49.8193 265.119 48.3096C264.597 46.8 259.384 47.1886 252.924 49.0898Z" fill="#E0F1D1"/>
<path d="M1486.15 78.3124C1498.94 73.8971 1505.73 59.9492 1501.31 47.1589C1496.9 34.3686 1482.95 27.5793 1470.16 31.9946C1457.37 36.4099 1450.58 50.3579 1454.99 63.1482C1459.41 75.9385 1473.36 82.7278 1486.15 78.3124Z" fill="white"/>
<path fill-rule="evenodd" clip-rule="evenodd" d="M1481.63 56.1953L1481.63 56.1924C1481.47 56.259 1480.67 56.5915 1478.84 57.2236C1477.37 57.7282 1476.33 58.0401 1475.96 58.1476L1475.96 58.1519C1470.25 59.8471 1465.71 60.3173 1465.31 59.1448C1464.9 57.9739 1468.76 55.5439 1474.31 53.3494L1475.63 57.1764C1476 57.0755 1477.08 56.774 1478.53 56.2713C1480.28 55.6682 1481.13 55.2936 1481.29 55.2226L1479.97 51.3971C1485.67 49.7088 1490.2 49.2422 1490.6 50.4117C1491.01 51.5841 1487.16 54.0076 1481.63 56.1953ZM1479.83 50.999L1478.65 47.5744L1486.49 44.8692L1484.68 39.6469L1463.35 47.0124L1465.15 52.2348L1472.99 49.5296L1474.17 52.9528C1467.9 55.4437 1463.55 58.3592 1464.07 59.8704C1464.59 61.3815 1469.81 60.9888 1476.28 59.0841L1480.07 70.0585L1485.74 68.1033L1481.95 57.126C1488.21 54.6386 1492.55 51.7285 1492.03 50.2188C1491.51 48.7091 1486.29 49.0978 1479.83 50.999Z" fill="#E0F1D1"/>
<path d="M1268.6 46.8135C1278.33 51.0134 1289.61 46.5364 1293.81 36.8138C1298.01 27.0911 1293.54 15.8046 1283.81 11.6047C1274.09 7.40474 1262.8 11.8818 1258.6 21.6044C1254.4 31.327 1258.88 42.6135 1268.6 46.8135Z" fill="white"/>
<path fill-rule="evenodd" clip-rule="evenodd" d="M1277.67 31.6445L1277.67 31.6423C1277.54 31.5989 1276.9 31.3668 1275.51 30.7655C1274.4 30.2855 1273.63 29.9145 1273.36 29.7825L1273.36 29.7858C1269.16 27.7497 1266.29 25.6255 1266.68 24.7343C1267.06 23.8442 1270.58 24.4786 1274.94 26.1351L1273.68 29.0442C1273.95 29.1848 1274.73 29.5781 1275.84 30.0562C1277.17 30.6299 1277.86 30.8624 1277.98 30.9052L1279.24 27.9971C1283.43 30.0316 1286.29 32.1525 1285.91 33.0415C1285.52 33.9327 1282.02 33.2994 1277.67 31.6445ZM1279.37 27.6946L1280.5 25.0913L1286.45 27.6645L1288.17 23.6948L1271.95 16.6885L1270.23 20.6582L1276.19 23.2315L1275.07 25.8336C1270.13 23.9646 1266.07 23.3513 1265.58 24.5C1265.08 25.6487 1268.31 28.1797 1273.05 30.4944L1269.45 38.8367L1273.76 40.6965L1277.36 32.352C1282.29 34.2177 1286.34 34.8283 1286.83 33.6807C1287.33 32.5331 1284.11 30.0059 1279.37 27.6946Z" fill="#E0F1D1"/>
<path d="M812.326 62.8873C818.967 60.5948 822.492 53.3528 820.2 46.7118C817.907 40.0709 810.665 36.5458 804.025 38.8383C797.384 41.1308 793.858 48.3728 796.151 55.0138C798.443 61.6547 805.685 65.1798 812.326 62.8873Z" fill="white"/>
<path fill-rule="evenodd" clip-rule="evenodd" d="M809.979 51.4039L809.979 51.4024C809.898 51.437 809.481 51.6096 808.53 51.9378C807.771 52.1999 807.229 52.3618 807.038 52.4176L807.039 52.4199C804.072 53.3 801.716 53.5441 801.506 52.9354C801.296 52.3274 803.301 51.0657 806.178 49.9263L806.864 51.9133C807.059 51.861 807.618 51.7044 808.374 51.4434C809.281 51.1303 809.723 50.9357 809.805 50.8989L809.119 48.9126C812.08 48.036 814.431 47.7937 814.641 48.401C814.851 49.0097 812.851 50.2681 809.979 51.4039ZM809.048 48.7059L808.434 46.9278L812.503 45.5232L811.567 42.8117L800.488 46.636L801.424 49.3476L805.493 47.943L806.107 49.7204C802.853 51.0137 800.592 52.5275 800.863 53.3121C801.134 54.0967 803.846 53.8928 807.206 52.9038L809.173 58.602L812.114 57.5868L810.146 51.8872C813.395 50.5957 815.65 49.0847 815.379 48.3008C815.109 47.517 812.402 47.7188 809.048 48.7059Z" fill="#E0F1D1"/>
<path d="M28.0514 306.779C40.2302 312.675 54.8829 307.582 60.779 295.403C66.6751 283.225 61.582 268.572 49.4032 262.676C37.2244 256.78 22.5718 261.873 16.6757 274.052C10.7796 286.23 15.8727 300.883 28.0514 306.779Z" fill="white"/>
<path fill-rule="evenodd" clip-rule="evenodd" d="M40.4536 287.917L40.455 287.914C40.298 287.851 39.4939 287.52 37.7504 286.676C36.3584 286.002 35.3985 285.486 35.062 285.303L35.06 285.307C29.8155 282.477 26.2676 279.608 26.8081 278.491C27.3479 277.376 31.7992 278.38 37.2739 280.734L35.5097 284.378C35.8478 284.572 36.8224 285.117 38.2089 285.789C39.8724 286.594 40.7396 286.929 40.902 286.99L42.6656 283.348C47.8976 286.175 51.4359 289.04 50.8968 290.153C50.3563 291.27 45.9159 290.268 40.4536 287.917ZM42.849 282.969L44.4277 279.708L51.8895 283.32L54.2969 278.348L33.9804 268.512L31.573 273.484L39.0347 277.097L37.4567 280.356C31.2577 277.699 26.1153 276.693 25.4187 278.132C24.7221 279.571 28.7015 282.979 34.6303 286.195L29.5712 296.644L34.9642 299.255L40.0246 288.803C46.2139 291.456 51.3446 292.458 52.0406 291.02C52.7365 289.583 48.7682 286.18 42.849 282.969Z" fill="#E0F1D1"/>
<path d="M436.785 131.402L444.382 135.236L446.58 130.859C446.58 130.859 434.543 124.906 434.526 124.853L428.552 136.69L432.986 138.929L436.785 131.402ZM442.062 147.432L434.465 143.598L432.262 147.962C432.262 147.962 444.299 153.915 444.317 153.968L450.291 142.131L445.856 139.893L442.062 147.432ZM424.812 144.253L427.032 139.855L431.429 142.075L429.21 146.472L424.812 144.253Z" fill="#E0F1D1"/>
<path d="M436.138 140.525L438.357 136.128L442.755 138.347L440.536 142.745L436.138 140.525ZM447.463 136.797L449.682 132.4L454.08 134.619L451.86 139.016L447.463 136.797Z" fill="#E0F1D1"/>
<path d="M327.427 63.5881L332.261 70.5917L336.286 67.8012C336.286 67.8012 328.569 56.8119 328.579 56.7569L317.667 64.289L320.488 68.3771L327.427 63.5881ZM324.384 80.1883L319.55 73.1847L315.527 75.9615C315.527 75.9615 323.244 86.9507 323.234 87.0057L334.147 79.4736L331.325 75.3855L324.384 80.1883ZM310.763 69.1379L314.817 66.3398L317.615 70.3937L313.561 73.1918L310.763 69.1379Z" fill="#E0F1D1"/>
<path d="M322.49 71.288L326.544 68.4899L329.342 72.5438L325.288 75.3419L322.49 71.288ZM334.218 73.4372L338.271 70.6391L341.07 74.693L337.016 77.4912L334.218 73.4372Z" fill="#E0F1D1"/>
</svg>
